<?xml version="1.0" encoding="UTF-8" standalone="no"?>
<!DOCTYPE svg PUBLIC "-//W3C//DTD SVG 1.1//EN" "http://www.w3.org/Graphics/SVG/1.1/DTD/svg11.dtd">
<!-- Created with Vectornator (http://vectornator.io/) -->
<svg height="100%" stroke-miterlimit="10" style="fill-rule:nonzero;clip-rule:evenodd;stroke-linecap:round;stroke-linejoin:round;" version="1.1" viewBox="0 0 512 512" width="100%" xml:space="preserve" xmlns="http://www.w3.org/2000/svg" xmlns:vectornator="http://vectornator.io" xmlns:xlink="http://www.w3.org/1999/xlink">
<defs/>
<clipPath id="ArtboardFrame">
<rect height="512" width="512" x="0" y="0"/>
</clipPath>
<g clip-path="url(#ArtboardFrame)" id="Untitled" vectornator:layerName="Untitled">
<path d="M256 0C114.615 0 0 114.615 0 256C0 397.385 114.615 512 256 512C397.385 512 512 397.385 512 256C512 114.615 397.385 0 256 0ZM104.438 173.906C126.636 173.906 139.188 185.106 139.188 200.562C139.187 216.019 127.897 227.344 118.25 227.344C115.864 227.344 114.594 225.889 114.594 224.438C114.594 219.666 121.562 213.864 121.562 201.312C121.563 190.94 116.487 184.188 105.906 184.188C83.7074 184.188 53.8125 217.389 53.8125 258.156C53.8125 286.372 65.1209 304.188 86.5938 304.188C110.245 304.188 127.787 280.658 136.5 256.281C143.035 238.024 157.754 224.031 171.031 224.031C179.226 224.031 184.936 227.869 186.906 236.375C192.404 226.727 198.116 224.625 203.406 224.625C208.282 224.625 210.344 226.389 210.344 229.812C210.344 230.953 210.144 232.309 209.625 233.969C205.787 246.417 198.125 273.7 198.125 286.562C198.125 291.23 199.365 294.125 202.062 294.125C216.688 294.125 232.235 248.405 231.094 230.562C230.886 228.696 231.943 227.132 233.5 226.406C235.782 225.162 238.376 224.541 240.969 224.438C253.002 224.437 251.327 240.602 247.281 257.406C259.625 235.518 272.583 223.812 282.438 223.812C290.737 223.812 295.219 230.146 295.219 240.312C295.219 254.005 288.062 270.168 288.062 283.031C288.063 287.077 288.888 290.188 292 290.188C298.742 290.187 309.093 276.602 313.969 258.656C315.11 254.3 315.959 249.96 316.062 245.5C316.581 233.882 320.311 223.719 332.344 223.719C337.53 223.719 338.781 225.061 338.781 227.031C338.781 230.455 337.832 231.058 337.625 242.469C337.314 262.282 338.982 290 344.688 290C349.044 290 360.575 273.821 368.562 255.875C359.122 251.103 354.844 241.346 354.844 231.906C354.844 219.562 361.916 207.938 374.156 207.938C382.144 207.937 387.125 213.969 387.125 224.031C387.125 230.566 385.46 239.173 380.688 250.688C387.327 252.348 395.937 249.126 403.406 239.375C410.875 229.624 419.883 223.594 429.219 223.594C437.31 223.594 443.133 227.431 445 235.938C450.498 226.29 456.21 224.219 461.5 224.219C466.479 224.219 468.438 225.994 468.438 229.625C468.437 230.766 468.134 232.111 467.719 233.562C463.777 246.114 456.094 273.387 456.094 286.25C456.094 291.436 457.345 294.75 460.25 294.75C465.333 294.75 471.655 286.986 476.219 273.812C476.53 272.879 477.274 272.344 478 272.344C479.66 272.344 481.104 274.338 481 277.969C481 290.728 467.812 306.281 452.562 306.281C442.812 306.281 437.543 299.428 435.469 289.781C429.141 300.362 421.04 306.375 410.875 306.375C401.539 306.375 390.75 300.051 390.75 277.438C390.75 269.657 392.418 261.783 395.219 254.625C388.476 259.293 381.502 259.497 376.938 258.875C365.216 283.252 345.84 306.281 334.844 306.281C325.923 306.281 320.219 289.59 317.625 268.844C309.223 291.042 296.667 306.281 284.219 306.281C273.015 306.281 267.625 297.759 267.625 285C267.625 273.174 273.938 254.712 273.938 245.688C273.937 243.716 273.419 241.969 271.656 241.969C265.639 241.969 245.737 269.024 237.75 302.219C237.023 305.33 232.756 306.188 229.125 306.188C221.45 306.188 219.49 297.88 219.594 289.062C212.021 300.265 204.137 306.281 194.594 306.281C186.295 306.281 179.854 300.88 177.469 289.781C171.141 300.362 163.04 306.375 152.875 306.375C141.464 306.375 134.12 297.765 132.875 281.375C122.605 301.187 103.513 318.219 81.625 318.219C49.5714 318.219 31 295.489 31 257.938C31 210.738 67.8196 173.906 104.438 173.906ZM373 218.312C370.095 218.312 367.719 223.809 367.719 230.344C367.719 235.634 369.057 241.55 372.688 245.906C374.347 241.031 376.646 231.493 376.75 225.062C376.75 221.121 375.904 218.312 373 218.312ZM176.438 235.531C164.819 235.531 153.812 262.203 153.812 278.281C153.813 287.41 156.193 293.625 162.312 293.625C172.894 293.625 183.375 264.995 183.375 248.812C183.375 241.447 181.416 235.531 176.438 235.531ZM434.406 235.531C422.788 235.531 411.812 262.825 411.812 278.281C411.813 286.476 414.193 293.625 420.312 293.625C430.997 293.625 441.25 264.995 441.25 248.812C441.25 241.447 439.489 235.531 434.406 235.531Z" fill="#ffffff" fill-rule="nonzero" opacity="1" stroke="#f6fef8" stroke-linecap="butt" stroke-linejoin="round" stroke-width="1"/>
</g>
</svg>
