<?xml version="1.0" encoding="UTF-8" standalone="no"?>
<!DOCTYPE svg PUBLIC "-//W3C//DTD SVG 1.1//EN" "http://www.w3.org/Graphics/SVG/1.1/DTD/svg11.dtd">
<!-- Created with Vectornator (http://vectornator.io/) -->
<svg height="100%" stroke-miterlimit="10" style="fill-rule:nonzero;clip-rule:evenodd;stroke-linecap:round;stroke-linejoin:round;" version="1.1" viewBox="0 0 512 512" width="100%" xml:space="preserve" xmlns="http://www.w3.org/2000/svg" xmlns:vectornator="http://vectornator.io" xmlns:xlink="http://www.w3.org/1999/xlink">
<defs/>
<clipPath id="ArtboardFrame">
<rect height="512" width="512" x="0" y="0"/>
</clipPath>
<g clip-path="url(#ArtboardFrame)" id="Untitled" vectornator:layerName="Untitled">
<g opacity="1">
<path d="M256.089 512C249.233 512 242.423 510.201 236.412 506.74L173.778 469.659C164.423 464.427 168.988 462.577 172.074 461.511C184.547 457.143 187.078 456.157 200.392 448.596C201.791 447.798 203.623 448.08 205.055 448.925L253.173 477.478C254.91 478.417 257.376 478.417 258.987 477.478L446.601 369.183C448.339 368.197 449.466 366.177 449.466 364.111L449.466 147.614C449.466 145.454 448.339 143.529 446.564 142.449L259.024 34.2473C257.287 33.2141 254.986 33.2141 253.248 34.2473L65.7461 142.449C63.9287 143.482 62.7734 145.501 62.7734 147.567L62.7734 364.064C62.7734 366.13 63.9005 368.103 65.6851 369.089L117.062 398.769C144.958 412.717 162.005 396.28 162.005 379.749L162.005 166.071C162.005 163.018 164.4 160.67 167.452 160.67L191.215 160.67C194.174 160.67 196.616 163.018 196.616 166.071L196.616 379.843C196.616 417.037 176.328 438.405 141.06 438.405C130.211 438.405 121.664 438.405 97.8073 426.665L48.5908 398.299C36.4275 391.255 28.9135 378.106 28.9135 364.064L28.9135 147.567C28.9135 133.479 36.4275 120.329 48.5908 113.379L236.393 5.03671C248.275-1.6789 264.054-1.6789 275.842 5.03671L463.409 113.426C475.526 120.423 483.086 133.526 483.086 147.614L483.086 364.111C483.086 378.153 475.526 391.255 463.409 398.299L275.842 506.642C269.83 510.117 263.021 511.901 256.07 511.901" fill="#ffffff" fill-rule="nonzero" opacity="1" stroke="none"/>
<path d="M314.041 362.819C231.951 362.819 214.739 325.137 214.739 293.531C214.739 290.526 217.162 288.131 220.172 288.131L244.405 288.131C247.082 288.131 249.336 290.079 249.759 292.723C253.422 317.416 264.317 329.871 313.956 329.871C353.499 329.871 370.311 320.938 370.311 299.97C370.311 287.9 365.521 278.931 304.094 272.919C252.717 267.847 220.971 256.53 220.971 215.437C220.971 177.586 252.905 155.044 306.395 155.044C366.46 155.044 396.234 175.895 399.991 220.697C400.132 222.247 399.569 223.75 398.535 224.877C397.502 225.957 396.046 226.615 394.544 226.615L370.17 226.615C367.634 226.615 365.427 224.83 364.91 222.388C359.04 196.418 344.857 188.105 306.301 188.105C263.143 188.105 258.118 203.133 258.118 214.404C258.118 228.07 264.035 232.062 322.269 239.764C379.938 247.419 407.317 258.22 407.317 298.749C407.317 339.606 373.223 363.04 313.768 363.04" fill="#ffffff" fill-rule="nonzero" opacity="1" stroke="none"/>
</g>
</g>
</svg>
